<?xml version="1.0" encoding="UTF-8" standalone="no"?>
<svg
   version="1.1"
   viewBox="0 0 1120 1080"
   width="1120"
   height="1080"
   id="svg19"
   sodipodi:docname="arstotzka.svg"
   inkscape:version="1.4.2 (ebf0e940d0, 2025-05-08)"
   xmlns:inkscape="http://www.inkscape.org/namespaces/inkscape"
   xmlns:sodipodi="http://sodipodi.sourceforge.net/DTD/sodipodi-0.dtd"
   xmlns="http://www.w3.org/2000/svg"
   xmlns:svg="http://www.w3.org/2000/svg">
  <defs
     id="defs19" />
  <sodipodi:namedview
     id="namedview19"
     pagecolor="#ffffff"
     bordercolor="#000000"
     borderopacity="0.25"
     inkscape:showpageshadow="2"
     inkscape:pageopacity="0.0"
     inkscape:pagecheckerboard="0"
     inkscape:deskcolor="#d1d1d1"
     inkscape:zoom="0.35729167"
     inkscape:cx="526.18076"
     inkscape:cy="513.58601"
     inkscape:window-width="1920"
     inkscape:window-height="1008"
     inkscape:window-x="0"
     inkscape:window-y="0"
     inkscape:window-maximized="1"
     inkscape:current-layer="svg19" />
  <g
     stroke-width="1.4"
     fill="none"
     stroke-linecap="butt"
     id="g9"
     transform="translate(-399.99931)">
    <path
       stroke="#1f241f"
       d="m 1520,353.02 c -165.17,0.01 69.67,0.04 -95.5,0.1 -1.5,0 -2.77,0.52 -3.81,1.57 -26.17,26.34 -52.46,52.64 -78.87,78.9 -0.12,0.12 -0.03,0.32 0.13,0.32 l 178.05,0.12"
       id="path1"
       sodipodi:nodetypes="cccccc" />
    <path
       stroke="#1f241f"
       d="m 1520,471 c -202.67,0.02 -5.33,-0.03 -208,-0.16 -3.79,0 -7.22,-0.2 -9.57,2.17 -28.25,28.35 -56.84,56.92 -85.77,85.69 -0.87,0.87 -0.69,1.3 0.54,1.3 l 302.8,0.01"
       id="path2"
       sodipodi:nodetypes="cccccc" />
    <path
       stroke="#1f241f"
       d="m 1520,596.91 -340.49,0.16 c -0.73,0 -1.43,0.29 -1.94,0.81 l -68.2,68.24 c -0.8,0.8 -0.8,2.11 0.01,2.91 3.97,3.91 7.88,7.87 11.74,11.89 1.13,1.17 2.31,2.22 3.54,3.14 1.22,0.91 2.87,0.93 4.34,0.93 263.67,-0.01 127.33,0 391,0.01"
       id="path3"
       sodipodi:nodetypes="ccccccccc" />
    <path
       stroke="#1f241f"
       d="m 400,685.02 c 266.75,0.02 133.5,-0.04 400.25,-0.17 1.75,0 3.21,-0.58 4.36,-1.75 4.47,-4.49 9.02,-9.07 13.66,-13.74 1.22,-1.23 1.22,-2.45 0,-3.68 -21.49,-21.51 -43.06,-43.17 -64.71,-64.99 -2.18,-2.19 -3.88,-3.69 -7.27,-3.71 -1.57,-0.01 -3,-0.01 -4.29,-0.01 -247.33,0.03 -94.67,0.04 -342,0.03"
       id="path4"
       sodipodi:nodetypes="ccccccccc" />
    <path
       stroke="#1f241f"
       d="m 400,559.99 311.22,-0.06 c 0.85,0 0.97,-0.3 0.37,-0.9 -27.13,-27.19 -54.46,-54.6 -82.01,-82.21 -3.06,-3.06 -5.14,-5.74 -10.33,-5.75 C 412.83,471.02 606.41,471 400,471.01"
       id="path5"
       sodipodi:nodetypes="cccccc" />
    <path
       stroke="#1f241f"
       d="m 400,433.99 185.17,0.07 c 1.01,0 1.16,-0.36 0.45,-1.07 -24.05,-23.93 -48.42,-48.36 -73.11,-73.3 -1.63,-1.64 -3.3,-3.21 -5.01,-4.72 -1.49,-1.31 -3.41,-1.97 -5.75,-1.97 H 400"
       id="path6"
       sodipodi:nodetypes="cccccsc" />
    <path
       stroke="#671717"
       d="m 914.82,441.16 c 0.01,0.46 -0.22,0.69 -0.68,0.7 -16.75,0.12 -32.82,0.16 -48.22,0.13 -4.96,-0.01 -9.42,0.02 -13.41,-3.63 -2.59,-2.38 -5.17,-4.61 -5.97,-8.2 -0.37,-1.65 -0.54,-3.14 -0.53,-4.49 0.18,-18.38 0.48,-35.95 -0.11,-52.91 -0.1,-2.94 -2.67,-5.22 -4.57,-7.1 -18.42,-18.25 -35.33,-35.23 -50.74,-50.95 -2.7,-2.75 -4.8,-3.95 -8.93,-3.95 -82.15,-0.01 -164.31,-0.06 -246.47,0.26 -1.21,0.01 -1.38,0.44 -0.53,1.29 102.49,102.43 204.47,204.39 305.94,305.9 7.63,7.63 17.94,17.39 25.12,25.56 2.33,2.66 2.24,6.95 2.26,10.4 0.05,12.51 0.01,24.79 -0.1,36.82 -0.01,0.61 -0.31,0.92 -0.92,0.92 l -22.46,0.03 c -0.38,0 -0.57,0.19 -0.57,0.56 l 0.03,36.94 c 0,0.36 0.43,0.54 0.69,0.3 3.41,-3.15 6.66,-6.34 9.73,-9.57 1.29,-1.36 2.77,-2.09 4.62,-2.09 6.55,-0.01 13.35,-0.02 20.38,-0.03 0.29,-0.01 0.52,0.23 0.53,0.52 0.13,5.95 0.11,12.69 -0.06,20.22 -0.03,1.24 -0.5,2.31 -1.4,3.21 -3.55,3.52 -7.19,7.19 -10.92,11.01 -0.21,0.22 -0.08,0.59 0.22,0.63 1.57,0.19 3.04,0.29 4.41,0.3 9.25,0.07 18.76,0.1 28.52,0.11 1.79,0 3.61,0.24 4.48,2.11 2.16,4.59 4.36,9.15 6.61,13.7 2.72,5.48 6.46,8.88 11.25,12.28 12.22,8.7 24.87,17.69 37.94,26.97 1.73,1.23 3.52,1.19 5.37,-0.12 12.82,-9.15 25.67,-18.25 38.55,-27.32 4.31,-3.04 7.43,-6.35 9.34,-9.93 2.63,-4.91 5.27,-10.23 7.94,-15.95 0.48,-1.03 1.51,-1.69 2.64,-1.69 l 35.5,-0.11 c 0.84,-0.01 0.96,-0.3 0.35,-0.88 -3.05,-2.93 -6.13,-5.94 -9.26,-9.02 -2.02,-1.99 -3.07,-4.15 -3.16,-6.5 -0.22,-6.13 -0.25,-12.47 -0.09,-19.03 0.01,-0.27 0.23,-0.49 0.5,-0.49 7.2,-0.06 14.08,-0.07 20.64,-0.02 1.54,0.01 2.85,0.58 3.93,1.69 3.21,3.32 6.54,6.6 10.01,9.85 0.33,0.3 0.86,0.08 0.86,-0.37 l 0.09,-35.91 c 0,-0.75 -0.61,-1.35 -1.36,-1.36 l -21.6,-0.1 c -0.74,0 -1.11,-0.37 -1.12,-1.11 -0.11,-13.45 -0.13,-25.53 -0.06,-36.23 0.01,-2.2 0.13,-4.39 0.34,-6.56 0.33,-3.46 4.24,-6.96 6.64,-9.35 108.71,-108.63 217.53,-217.44 326.46,-326.43 0.55,-0.55 0.46,-0.95 -0.25,-1.22 -0.15,-0.06 -0.55,-0.09 -1.22,-0.09 -79.92,-0.05 -159.84,-0.06 -239.75,-0.02 -3.04,0 -5.96,0.07 -8.75,0.21 -2.93,0.15 -6.1,3.54 -8.04,5.52 -16.32,16.59 -33.08,33.37 -50.27,50.32 -2.41,2.37 -3.58,5.4 -3.53,9.09 0.26,17.18 0.63,34.9 0.19,52.57 -0.06,2.65 -1.31,4.46 -3,6.23 -2.67,2.8 -6.1,7.09 -10.04,7.12 -19.41,0.15 -38.04,0.13 -55.89,-0.07 -0.37,-0.01 -0.66,-0.3 -0.67,-0.67 -0.14,-10.89 -0.25,-22.24 -0.33,-34.07 -0.01,-2.23 0.08,-4.51 0.28,-6.85 0.4,-4.61 3.32,-7.2 6.33,-10.22 8.52,-8.54 17.02,-16.96 25.5,-25.27 1.22,-1.2 3.38,-3.18 3.2,-5.04 -0.05,-0.57 -0.37,-0.86 -0.94,-0.87 -6.87,-0.06 -13.76,-0.06 -20.66,0.01 -2.18,0.02 -4.18,0.94 -6,2.77 -6.11,6.16 -12.3,12.39 -18.57,18.7 -3.14,3.15 -6.88,3.04 -11.14,2.35 -0.36,-0.06 -0.56,-0.27 -0.61,-0.63 -0.38,-3.06 -1.07,-9.54 1.31,-11.98 9.14,-9.37 19.41,-19.63 30.8,-30.78 3.15,-3.08 8.79,-2.47 12.86,-2.3 0.7,0.03 1.21,-0.66 0.97,-1.32 -0.36,-0.99 -0.9,-1.85 -1.61,-2.6 -6.03,-6.27 -12.52,-12.81 -19.49,-19.62 -1.32,-1.29 -2.83,-2.11 -4.52,-2.46 -3.06,-0.64 -11.72,-1.37 -14.32,1.09 -11.24,10.63 -21.97,21.94 -32.62,32.64 -1.36,1.37 -3,2.05 -4.93,2.06 -8.92,0.02 -18.03,0.09 -27.32,0.2 -2.05,0.03 -3.84,0.74 -5.37,2.13 -2.82,2.57 -5.64,5.43 -8.46,8.6 -1.68,1.89 -1.86,4.21 -1.86,6.63 -0.01,26.57 0.01,52.18 0.07,76.83"
       id="path7" />
    <path
       stroke="#671717"
       d="m 1039.77,612.38 c 3.37,-6.43 6.22,-12.29 6.2,-18.84 -0.12,-41.99 -0.15,-83.04 -0.1,-123.14 0,-1.12 -0.4,-1.28 -1.19,-0.49 -5.91,5.95 -11.59,11.74 -17.02,17.37 -2.11,2.17 -4.24,3.64 -7.4,3.71 -9.56,0.21 -19.36,0.25 -29.39,0.11 -2.97,-0.04 -4.53,-1.03 -6.48,-2.97 -6.63,-6.59 -13.16,-13.16 -19.61,-19.72 -0.43,-0.44 -1.13,-0.44 -1.57,0 -7.35,7.45 -14.05,14.19 -20.1,20.21 -1.55,1.54 -3.26,2.34 -5.11,2.39 -7.55,0.21 -15.82,0.24 -24.8,0.08 -5.21,-0.09 -8.29,0.61 -11.53,-2.64 -6.95,-6.96 -13.42,-13.47 -19.41,-19.53 -0.77,-0.78 -1.15,-0.62 -1.15,0.48 0.02,38.59 0.02,77.41 -0.01,116.46 -0.01,8.09 0.66,14.23 4.04,21.14 3.63,7.4 7.12,14.47 12.87,20.29 7.7,7.8 15.43,15.58 23.2,23.33 3.24,3.23 7.05,6.25 11.11,8.29 4.33,2.18 8.67,4.33 13.04,6.44 6.83,3.31 12.35,9.29 17.39,14.89 0.4,0.43 1.08,0.43 1.47,-0.01 4.58,-5.13 9.34,-10.12 15.16,-13.59 3.09,-1.85 6.47,-3.58 10.13,-5.21 7.48,-3.33 13.26,-7.63 18.99,-13.44 6.65,-6.74 13.25,-13.39 19.82,-19.94 4.51,-4.5 8.33,-9.72 11.45,-15.67"
       id="path8" />
    <path
       stroke="#671717"
       d="m 915.1,609 c 0.02,0.53 0.45,0.94 0.98,0.95 6.59,0.14 13.12,0.16 19.61,0.06 1.87,-0.03 3.44,-0.65 4.72,-1.85 3.02,-2.85 5.89,-5.65 8.61,-8.4 18.53,-18.7 37.26,-37.41 56.2,-56.12 1.76,-1.74 3.39,-3.48 4.88,-5.21 1.8,-2.09 2.01,-5.06 2.09,-7.68 0.17,-5.93 0.12,-11.6 -0.16,-17.01 -0.02,-0.35 -0.29,-0.63 -0.64,-0.65 -6.93,-0.37 -13.54,-0.45 -19.81,-0.24 -2.22,0.07 -4,1.06 -5.63,2.58 -2.51,2.34 -5.05,4.81 -7.62,7.41 -23.65,23.93 -43.73,44 -60.25,60.23 -2.19,2.14 -3.3,4.64 -3.33,7.5 -0.07,5.65 0.04,11.79 0.35,18.43"
       id="path9" />
  </g>
  <path
     fill="#cd2e2d"
     d="m 514.81971,441.16 c -0.06,-24.65 -0.08,-50.26 -0.07,-76.83 0,-2.42 0.18001,-4.74 1.86001,-6.63 2.81999,-3.17 5.63999,-6.03 8.45997,-8.6 1.53001,-1.39 3.32001,-2.1 5.37,-2.13 9.29001,-0.11 18.39999,-0.18 27.31997,-0.2 1.93,-0.01 3.57,-0.69 4.93,-2.06 10.64998,-10.7 21.37999,-22.01 32.61997,-32.64 2.6,-2.46 11.25998,-1.73 14.31998,-1.09 1.69,0.35 3.20001,1.17 4.52,2.46 6.96999,6.81 13.45999,13.35 19.48996,19.62 0.71001,0.75 1.25001,1.61 1.61001,2.6 0.24,0.66 -0.27001,1.35 -0.97,1.32 -4.06998,-0.17 -9.70999,-0.78 -12.85999,2.3 -11.38997,11.15 -21.65996,21.41 -30.79996,30.78 -2.38,2.44 -1.69,8.92 -1.31,11.98 0.05,0.36 0.25,0.57 0.61,0.63 4.26,0.69 8.00001,0.8 11.13999,-2.35 6.27,-6.31 12.46,-12.54 18.56997,-18.7 1.82001,-1.83 3.82,-2.75 6.00001,-2.77 6.89998,-0.07 13.78998,-0.07 20.65998,-0.01 0.56999,0.01 0.88998,0.3 0.93998,0.87 0.18,1.86 -1.97998,3.84 -3.19998,5.04 -8.48,8.31 -16.97998,16.73 -25.49998,25.27 -3.00998,3.02 -5.92998,5.61 -6.32999,10.22 -0.2,2.34 -0.29,4.62 -0.27999,6.85 0.08,11.83 0.18999,23.18 0.32999,34.07 0.01,0.37 0.3,0.66 0.67,0.67 17.84999,0.2 36.47995,0.22 55.88993,0.07 3.94001,-0.03 7.37001,-4.32 10.03999,-7.12 1.69,-1.77 2.94,-3.58 3,-6.23 0.44,-17.67 0.07,-35.39 -0.19,-52.57 -0.05,-3.69 1.12,-6.72 3.53,-9.09 17.18998,-16.95 33.94997,-33.73 50.26996,-50.32 1.93999,-1.98 5.10997,-5.37 8.03997,-5.52 2.79,-0.14 5.71,-0.21 8.75,-0.21 79.90991,-0.04 159.82983,-0.03 239.74974,0.02 0.67,0 1.07001,0.03 1.22,0.09 0.71,0.27 0.8,0.67 0.25,1.22 -108.92988,108.99 -217.74977,217.8 -326.45966,326.43 -2.39999,2.39 -6.30998,5.89 -6.63998,9.35 -0.21,2.17 -0.33,4.36 -0.34,6.56 -0.07,10.7 -0.05,22.78 0.06,36.23 0.01,0.74 0.37999,1.11 1.12,1.11 l 21.59996,0.1 c 0.75,0.01 1.36,0.61 1.36,1.36 l -0.09,35.91 c 0,0.45 -0.53,0.67 -0.86,0.37 -3.47,-3.25 -6.79999,-6.53 -10.00998,-9.85 -1.08,-1.11 -2.39001,-1.68 -3.93,-1.69 -6.56001,-0.05 -13.43998,-0.04 -20.63999,0.02 -0.27,0 -0.49,0.22 -0.5,0.49 -0.15999,6.56 -0.13,12.9 0.09,19.03 0.09,2.35 1.14,4.51 3.16,6.5 3.13,3.08 6.21,6.09 9.26001,9.02 0.60999,0.58 0.49,0.87 -0.35,0.88 l -35.49997,0.11 c -1.13001,0 -2.16001,0.66 -2.64,1.69 -2.67001,5.72 -5.31,11.04 -7.93999,15.94999 -1.91,3.58001 -5.03,6.89001 -9.33999,9.93001 -12.87999,9.07 -25.72997,18.17 -38.54996,27.32 -1.85,1.31 -3.64,1.35 -5.36999,0.12 -13.06999,-9.28 -25.71997,-18.27 -37.93996,-26.97 -4.79,-3.4 -8.53,-6.8 -11.25,-12.28 -2.25,-4.55 -4.44998,-9.11 -6.60998,-13.7 -0.87,-1.87 -2.69001,-2.11 -4.48001,-2.11 -9.75998,-0.01 -19.26998,-0.04 -28.51996,-0.11 -1.37,-0.01 -2.84,-0.11 -4.41,-0.3 -0.3,-0.04 -0.43,-0.41 -0.22,-0.63 3.73,-3.82 7.37,-7.49 10.92,-11.01 0.89998,-0.9 1.36998,-1.97 1.39998,-3.21 0.17,-7.53 0.19,-14.27 0.06,-20.22 -0.01,-0.29 -0.23999,-0.53 -0.53,-0.52 -7.02998,0.01 -13.82998,0.02 -20.37996,0.03 -1.85,0 -3.33001,0.73 -4.62,2.09 -3.07,3.23 -6.31998,6.42 -9.72999,9.57 -0.25999,0.24 -0.68999,0.06 -0.68999,-0.3 l -0.03,-36.94 c 0,-0.37 0.18999,-0.56 0.57,-0.56 l 22.45996,-0.03 c 0.61,0 0.91,-0.31 0.92,-0.92 0.11,-12.03 0.15,-24.31 0.10001,-36.82 -0.02,-3.45 0.07,-7.74 -2.26,-10.4 C 458.53979,635.6 448.22981,625.84 440.5998,618.21 339.1299,516.7 237.14999,414.74 134.66011,312.31 c -0.85,-0.85 -0.68,-1.28 0.53,-1.29 82.15992,-0.32 164.31982,-0.27 246.46974,-0.26 4.13001,0 6.22998,1.2 8.92998,3.95 15.40999,15.72 32.31997,32.7 50.73995,50.95 1.9,1.88 4.47,4.16 4.57,7.1 0.59001,16.96 0.29001,34.53 0.11,52.91 -0.01,1.35 0.16001,2.84 0.53001,4.49 0.79999,3.59 3.37997,5.82 5.96997,8.2 3.99001,3.65 8.45001,3.62 13.40999,3.63 15.39998,0.03 31.46997,-0.01 48.21996,-0.13 0.45999,-0.01 0.68999,-0.24 0.68,-0.7 z m 124.94986,171.22 c 3.37,-6.43 6.22,-12.29 6.20001,-18.84 -0.12001,-41.99 -0.15001,-83.04 -0.10001,-123.14 0,-1.12 -0.40001,-1.28 -1.19001,-0.49 -5.91,5.95 -11.59,11.74 -17.01998,17.37 -2.11001,2.17 -4.24001,3.64 -7.4,3.71 -9.55998,0.21 -19.35999,0.25 -29.38997,0.11 -2.97,-0.04 -4.53,-1.03 -6.47998,-2.97 -6.63,-6.59 -13.16001,-13.16 -19.60998,-19.72 -0.43001,-0.44 -1.13,-0.44 -1.57,0 -7.35001,7.45 -14.04999,14.19 -20.09999,20.21 -1.55001,1.54 -3.25998,2.34 -5.10998,2.39 -7.55001,0.21 -15.81999,0.24 -24.79999,0.08 -5.20998,-0.09 -8.28998,0.61 -11.52998,-2.64 -6.95,-6.96 -13.41999,-13.47 -19.40999,-19.53 -0.77,-0.78 -1.14999,-0.62 -1.14999,0.48 0.02,38.59 0.02,77.41 -0.01,116.46 -0.01,8.09 0.65999,14.23 4.04,21.14 3.62999,7.4 7.11999,14.47 12.86997,20.29 7.70001,7.8 15.42999,15.58 23.2,23.33 3.24,3.23 7.04998,6.25 11.10998,8.29 4.32999,2.18 8.66997,4.33 13.03998,6.44 6.83,3.31 12.34999,9.29 17.38999,14.89 0.39999,0.43 1.07999,0.43 1.47,-0.01 4.58,-5.13 9.33997,-10.12 15.15998,-13.59 3.09,-1.85 6.46998,-3.58 10.12997,-5.21 7.48001,-3.33 13.25999,-7.63 18.98999,-13.44 6.65,-6.74 13.24998,-13.39 19.81999,-19.94 4.50998,-4.5 8.32998,-9.72 11.44998,-15.67 z"
     id="path11"
     style="stroke-width:1" />
  <path
     fill="#3d483d"
     d="M 2.6462156e-4,433.99 V 353 H 101.75014 c 2.34,0 4.26001,0.66 5.75001,1.97 1.70999,1.51 3.38,3.08 5.01,4.72 24.68996,24.94 49.05993,49.37 73.10991,73.3 0.71001,0.71 0.56,1.07 -0.45,1.07 z"
     id="path12"
     sodipodi:nodetypes="ccsccccc"
     style="stroke-width:1" />
  <path
     fill="#3d483d"
     d="m 1119.9992,353.02 v 81.01 l -178.04996,-0.12 c -0.16,0 -0.25,-0.2 -0.13,-0.32 26.40997,-26.26 52.69996,-52.56 78.86986,-78.9 1.04,-1.05 2.31,-1.57 3.8101,-1.57 165.1698,-0.06 -69.66998,-0.09 95.5,-0.1 z"
     id="path13"
     sodipodi:nodetypes="ccccccc"
     style="stroke-width:1" />
  <path
     fill="#3d483d"
     d="m 1119.9992,471 v 89.01 L 817.19937,560 c -1.23,0 -1.41,-0.43 -0.53999,-1.3 28.92996,-28.77 57.51994,-57.34 85.76991,-85.69 2.35,-2.37 5.77998,-2.17 9.56999,-2.17 202.66982,0.13 5.32999,0.18 207.99992,0.16 z"
     id="path15"
     sodipodi:nodetypes="ccccccc"
     style="stroke-width:1" />
  <path
     fill="#3d483d"
     d="M 2.6462156e-4,559.99 V 471.01 C 206.41003,471 12.830252,471.02 219.25004,471.07 c 5.18997,0.01 7.26997,2.69 10.32998,5.75 27.54996,27.61 54.87993,55.02 82.00991,82.21 0.59998,0.6 0.47998,0.9 -0.36999,0.9 z"
     id="path16"
     sodipodi:nodetypes="ccccccc"
     style="stroke-width:1" />
  <path
     fill="#cd2e2d"
     d="m 515.0997,609 c -0.31,-6.64 -0.42,-12.78 -0.35,-18.43 0.03,-2.86 1.14,-5.36 3.33,-7.5 16.51998,-16.23 36.59997,-36.3 60.24994,-60.23 2.57,-2.6 5.10999,-5.07 7.61998,-7.41 1.63,-1.52 3.41,-2.51 5.63,-2.58 6.27,-0.21 12.87998,-0.13 19.80999,0.24 0.34999,0.02 0.61999,0.3 0.64,0.65 0.27999,5.41 0.32999,11.08 0.15999,17.01 -0.08,2.62 -0.29,5.59 -2.09,7.68 -1.49,1.73 -3.12,3.47 -4.87999,5.21 -18.93999,18.71 -37.66996,37.42 -56.19994,56.12 -2.72,2.75 -5.59,5.55 -8.61,8.4 -1.27998,1.2 -2.84998,1.82 -4.71998,1.85 -6.49001,0.1 -13.01998,0.08 -19.60999,-0.06 -0.53,-0.01 -0.96,-0.42 -0.98,-0.95 z"
     id="path17"
     style="stroke-width:1" />
  <path
     fill="#3d483d"
     d="M 1119.9992,596.91 V 685 c -263.66986,-0.01 -127.33001,-0.02 -390.99973,-0.01 -1.47,0 -3.12,-0.02 -4.34,-0.93 -1.23,-0.92 -2.40998,-1.97 -3.53998,-3.14 -3.86,-4.02 -7.77,-7.98 -11.74,-11.89 -0.81001,-0.8 -0.81001,-2.11 -0.01,-2.91 l 68.19994,-68.24 c 0.50999,-0.52 1.20999,-0.81 1.93999,-0.81 z"
     id="path18"
     sodipodi:nodetypes="ccsccccccc"
     style="stroke-width:1" />
  <path
     fill="#3d483d"
     d="M 2.6462156e-4,685.02 V 597 C 247.33,597.01 94.670164,597 341.9999,596.97 c 1.28998,0 2.71998,0 4.28998,0.01 3.39,0.02 5.09,1.52 7.27001,3.71 21.64996,21.82 43.21995,43.48 64.70991,64.99 1.21999,1.23 1.21999,2.45 0,3.68 -4.63998,4.67 -9.18999,9.25 -13.65998,13.74 -1.15001,1.17 -2.60999,1.75 -4.35998,1.75 -266.74973,0.13 -133.49987,0.19 -400.24957537844,0.17 z"
     id="path19"
     sodipodi:nodetypes="ccsccccccc"
     style="stroke-width:1" />
</svg>
